HIERARCHY
ROOT pelvis
{
	OFFSET 0.003123 -0.351407 0.012037
	CHANNELS 6 Xposition Yposition Zposition Zrotation Yrotation Xrotation 
	JOINT left_hip
	{
		OFFSET 0.058189 -0.092763 -0.026001
		CHANNELS 3 Zrotation Yrotation Xrotation
		JOINT left_knee
		{
			OFFSET 0.054695 -0.378753 -0.009396
			CHANNELS 3 Zrotation Yrotation Xrotation
			JOINT left_ankle
			{
				OFFSET -0.043453 -0.403059 -0.031876
				CHANNELS 3 Zrotation Yrotation Xrotation
				JOINT left_foot
				{
					OFFSET 0.047257 -0.057997 0.118216
					CHANNELS 3 Zrotation Yrotation Xrotation
					End Site
					{
						OFFSET 0.000000 0.000000 0.000000
					}
				}
			}
		}
	}
	JOINT right_hip
	{
		OFFSET -0.063267 -0.103908 -0.021250
		CHANNELS 3 Zrotation Yrotation Xrotation
		JOINT right_knee
		{
			OFFSET -0.044210 -0.362380 -0.016824
			CHANNELS 3 Zrotation Yrotation Xrotation
			JOINT right_ankle
			{
				OFFSET 0.015417 -0.410728 -0.020192
				CHANNELS 3 Zrotation Yrotation Xrotation
				JOINT right_foot
				{
					OFFSET -0.038812 -0.058328 0.119049
					CHANNELS 3 Zrotation Yrotation Xrotation
					End Site
					{
						OFFSET 0.000000 0.000000 0.000000
					}
				}
			}
		}
	}
	JOINT spine_1
	{
		OFFSET -0.002763 0.109891 -0.027618
		CHANNELS 3 Zrotation Yrotation Xrotation
		JOINT spine_2
		{
			OFFSET 0.009448 0.131853 -0.005940
			CHANNELS 3 Zrotation Yrotation Xrotation
			JOINT spine_3
			{
				OFFSET -0.011330 0.052235 0.028447
				CHANNELS 3 Zrotation Yrotation Xrotation
				JOINT neck
				{
					OFFSET -0.012164 0.165167 -0.031615
					CHANNELS 3 Zrotation Yrotation Xrotation
					JOINT head
					{
						OFFSET 0.024783 0.160452 0.020737
						CHANNELS 3 Zrotation Yrotation Xrotation
						End Site
						{
							OFFSET 0.000000 0.000000 0.000000
						}
					}
				}
				JOINT left_collar
				{
					OFFSET 0.046364 0.084944 -0.007220
					CHANNELS 3 Zrotation Yrotation Xrotation
					JOINT left_shoulder
					{
						OFFSET 0.119239 0.057728 -0.015461
						CHANNELS 3 Zrotation Yrotation Xrotation
						JOINT left_elbow
						{
							OFFSET 0.254123 -0.072151 -0.042459
							CHANNELS 3 Zrotation Yrotation Xrotation
							JOINT left_wrist
							{
								OFFSET 0.251987 0.023221 -0.002472
								CHANNELS 3 Zrotation Yrotation Xrotation
								JOINT left_index_1
								{
									OFFSET 0.101902 -0.008688 0.019351
									CHANNELS 3 Zrotation Yrotation Xrotation
									JOINT left_index_2
									{
										OFFSET 0.030149 -0.011154 0.001151
										CHANNELS 3 Zrotation Yrotation Xrotation
										JOINT left_index_3
										{
											OFFSET 0.006504 -0.021577 -0.002433
											CHANNELS 3 Zrotation Yrotation Xrotation
											End Site
											{
												OFFSET 0.000000 0.000000 0.000000
											}
										}
									}
								}
								JOINT left_middle_1
								{
									OFFSET 0.109398 -0.006328 -0.003981
									CHANNELS 3 Zrotation Yrotation Xrotation
									JOINT left_middle_2
									{
										OFFSET 0.026472 -0.015218 -0.004641
										CHANNELS 3 Zrotation Yrotation Xrotation
										JOINT left_middle_3
										{
											OFFSET 0.005022 -0.023347 -0.001911
											CHANNELS 3 Zrotation Yrotation Xrotation
											End Site
											{
												OFFSET 0.000000 0.000000 0.000000
											}
										}
									}
								}
								JOINT left_pinky_1
								{
									OFFSET 0.084047 -0.014539 -0.043750
									CHANNELS 3 Zrotation Yrotation Xrotation
									JOINT left_pinky_2
									{
										OFFSET 0.012124 -0.014448 -0.005375
										CHANNELS 3 Zrotation Yrotation Xrotation
										JOINT left_pinky_3
										{
											OFFSET 0.003798 -0.018853 0.000167
											CHANNELS 3 Zrotation Yrotation Xrotation
											End Site
											{
												OFFSET 0.000000 0.000000 0.000000
											}
										}
									}
								}
								JOINT left_ring_1
								{
									OFFSET 0.097444 -0.009268 -0.027345
									CHANNELS 3 Zrotation Yrotation Xrotation
									JOINT left_ring_2
									{
										OFFSET 0.023561 -0.016057 -0.001895
										CHANNELS 3 Zrotation Yrotation Xrotation
										JOINT left_ring_3
										{
											OFFSET 0.004257 -0.023548 0.000814
											CHANNELS 3 Zrotation Yrotation Xrotation
											End Site
											{
												OFFSET 0.000000 0.000000 0.000000
											}
										}
									}
								}
								JOINT left_thumb_1
								{
									OFFSET 0.040636 -0.017977 0.025611
									CHANNELS 3 Zrotation Yrotation Xrotation
									JOINT left_thumb_2
									{
										OFFSET 0.021637 -0.017639 0.011623
										CHANNELS 3 Zrotation Yrotation Xrotation
										JOINT left_thumb_3
										{
											OFFSET 0.024002 -0.008356 0.006548
											CHANNELS 3 Zrotation Yrotation Xrotation
											End Site
											{
												OFFSET 0.000000 0.000000 0.000000
											}
										}
									}
								}
							}
						}
					}
				}
				JOINT right_collar
				{
					OFFSET -0.047695 0.084339 -0.013400
					CHANNELS 3 Zrotation Yrotation Xrotation
					JOINT right_shoulder
					{
						OFFSET -0.102578 0.053524 -0.012669
						CHANNELS 3 Zrotation Yrotation Xrotation
						JOINT right_elbow
						{
							OFFSET -0.271150 -0.036492 -0.026467
							CHANNELS 3 Zrotation Yrotation Xrotation
							JOINT right_wrist
							{
								OFFSET -0.249267 -0.004533 -0.015325
								CHANNELS 3 Zrotation Yrotation Xrotation
								JOINT right_index_1
								{
									OFFSET -0.099881 -0.011783 0.019600
									CHANNELS 3 Zrotation Yrotation Xrotation
									JOINT right_index_2
									{
										OFFSET -0.030148 -0.011154 0.001151
										CHANNELS 3 Zrotation Yrotation Xrotation
										JOINT right_index_3
										{
											OFFSET -0.006505 -0.021577 -0.002432
											CHANNELS 3 Zrotation Yrotation Xrotation
											End Site
											{
												OFFSET 0.000000 0.000000 0.000000
											}
										}
									}
								}
								JOINT right_middle_1
								{
									OFFSET -0.107376 -0.009422 -0.003734
									CHANNELS 3 Zrotation Yrotation Xrotation
									JOINT right_middle_2
									{
										OFFSET -0.026472 -0.015218 -0.004641
										CHANNELS 3 Zrotation Yrotation Xrotation
										JOINT right_middle_3
										{
											OFFSET -0.005022 -0.023347 -0.001911
											CHANNELS 3 Zrotation Yrotation Xrotation
											End Site
											{
												OFFSET 0.000000 0.000000 0.000000
											}
										}
									}
								}
								JOINT right_pinky_1
								{
									OFFSET -0.082027 -0.017634 -0.043503
									CHANNELS 3 Zrotation Yrotation Xrotation
									JOINT right_pinky_2
									{
										OFFSET -0.012123 -0.014448 -0.005374
										CHANNELS 3 Zrotation Yrotation Xrotation
										JOINT right_pinky_3
										{
											OFFSET -0.003798 -0.018852 0.000167
											CHANNELS 3 Zrotation Yrotation Xrotation
											End Site
											{
												OFFSET 0.000000 0.000000 0.000000
											}
										}
									}
								}
								JOINT right_ring_1
								{
									OFFSET -0.095423 -0.012362 -0.027099
									CHANNELS 3 Zrotation Yrotation Xrotation
									JOINT right_ring_2
									{
										OFFSET -0.023561 -0.016057 -0.001895
										CHANNELS 3 Zrotation Yrotation Xrotation
										JOINT right_ring_3
										{
											OFFSET -0.004257 -0.023548 0.000816
											CHANNELS 3 Zrotation Yrotation Xrotation
											End Site
											{
												OFFSET 0.000000 0.000000 0.000000
											}
										}
									}
								}
								JOINT right_thumb_1
								{
									OFFSET -0.038613 -0.021074 0.025861
									CHANNELS 3 Zrotation Yrotation Xrotation
									JOINT right_thumb_2
									{
										OFFSET -0.021636 -0.017639 0.011623
										CHANNELS 3 Zrotation Yrotation Xrotation
										JOINT right_thumb_3
										{
											OFFSET -0.024004 -0.008353 0.006547
											CHANNELS 3 Zrotation Yrotation Xrotation
											End Site
											{
												OFFSET 0.000000 0.000000 0.000000
											}
										}
									}
								}
							}
						}
					}
				}
			}
		}
	}
}
MOTION
Frames: 7
Frame Time: 0.050000
0.003913 0.918980 -0.003372 1.129662 1.420443 -9.509505 3.407795 1.330627 11.997576 -3.777689 0.105384 2.479111 3.194094 -0.174308 -8.132007 0.000000 0.000000 0.000000 -4.556101 -0.804649 11.075093 3.235029 -0.117711 7.704269 -5.029662 -2.883728 -13.032237 0.000000 0.000000 0.000000 -0.318846 -0.822572 12.202769 -8.399860 -0.199867 -16.795881 8.587282 -0.474736 25.738520 2.163203 0.837325 -7.195201 0.000000 0.000000 0.000000 -5.909298 -4.080026 1.590419 -61.409932 -9.318524 -8.708548 -12.124637 -36.869147 8.031943 -9.260512 5.188331 17.664705 -22.358283 3.066276 0.162979 -13.626545 12.884924 16.686248 0.000000 0.000000 0.000000 -19.883078 1.791563 -3.646801 -28.208713 5.478746 0.078706 0.000000 0.000000 0.000000 -3.945022 -9.309006 -9.117229 -55.027314 -11.988882 -23.771292 0.000000 0.000000 0.000000 -20.366116 -1.911399 -3.603424 -43.827467 -1.970070 -8.615248 0.000000 0.000000 0.000000 1.372119 35.192497 35.257316 7.702151 -18.337777 -9.912099 0.000000 0.000000 0.000000 0.023790 -0.067074 -0.037908 64.060398 10.123492 -3.100402 12.615717 33.478934 2.808775 13.714048 -2.797510 25.313847 21.464609 -0.509038 -0.944461 29.766193 -15.578536 7.990183 0.000000 0.000000 0.000000 17.811169 5.151592 -6.256047 49.740148 -5.512098 -9.860687 0.000000 0.000000 0.000000 -1.519285 40.727172 -23.438021 46.995461 19.003369 -41.622619 0.000000 0.000000 0.000000 19.599132 11.772667 -7.315281 58.279541 4.820282 -15.652375 0.000000 0.000000 0.000000 -2.433706 -35.208917 35.723733 -8.463167 15.956080 -9.380761 0.000000 0.000000 0.000000 
0.003737 0.918940 -0.003372 0.722363 1.433980 -9.716808 3.842473 1.304312 12.238651 -3.694870 0.100209 2.439646 3.243774 -0.216872 -8.296575 0.000000 0.000000 0.000000 -4.230870 -0.870714 11.334536 3.464365 -0.146819 7.642744 -4.969847 -2.822106 -12.901348 0.000000 0.000000 0.000000 0.108954 -0.834097 12.111374 -8.454531 -0.147333 -16.690489 8.587497 -0.548841 25.875626 1.994648 0.904297 -7.492259 0.000000 0.000000 0.000000 -6.109040 -3.728023 1.385478 -61.560361 -9.757631 -8.610879 -12.123649 -36.318854 7.904734 -9.911395 5.482410 18.284669 -22.009078 3.138424 0.171324 -16.500524 12.945457 14.498190 0.000000 0.000000 0.000000 -20.329250 1.873273 -3.754129 -30.046563 4.260659 -3.179827 0.000000 0.000000 0.000000 -3.867848 -11.826191 -10.932326 -57.730518 -9.214622 -18.964045 0.000000 0.000000 0.000000 -21.021465 -1.801656 -3.672628 -44.765881 -0.835618 -6.848696 0.000000 0.000000 0.000000 1.582618 35.955383 36.247291 9.690060 -18.595349 -11.041273 0.000000 0.000000 0.000000 0.400270 -0.470725 -0.282682 63.746825 10.491856 -2.958230 13.155573 33.090731 2.894152 12.506657 -3.597264 25.668404 21.793631 -0.618021 -0.965661 31.234992 -17.962360 9.572060 0.000000 0.000000 0.000000 18.494938 5.318184 -6.449541 53.822392 -6.207111 -9.736997 0.000000 0.000000 0.000000 -2.703818 45.754919 -21.781669 43.127506 25.002340 -50.065927 0.000000 0.000000 0.000000 22.275656 10.262331 -6.772416 61.948973 6.402376 -16.619477 0.000000 0.000000 0.000000 -2.907585 -36.857977 37.592430 -15.476802 17.733420 -14.011972 0.000000 0.000000 0.000000 
0.003913 0.918698 -0.003372 0.949909 0.951623 -10.232450 3.544200 1.448024 13.048634 -3.645975 0.125550 2.123294 3.336366 0.093615 -8.266613 0.000000 0.000000 0.000000 -4.508247 -0.832682 11.413361 3.319059 -0.117409 8.420575 -4.965362 -2.403151 -13.279054 0.000000 0.000000 0.000000 -0.097595 -0.882143 12.879544 -8.504254 -0.182070 -16.799131 8.662899 0.277746 25.965451 2.097478 1.076756 -8.555425 0.000000 0.000000 0.000000 -5.227009 -4.568300 1.877303 -62.338925 -9.847597 -8.741688 -11.347217 -36.844322 7.762220 -9.322729 5.253579 17.825315 -23.042818 4.215269 0.354223 -13.518109 11.861049 14.981491 0.000000 0.000000 0.000000 -20.177644 1.477692 -3.849945 -28.398440 5.423553 -0.162391 0.000000 0.000000 0.000000 -4.140253 -9.300683 -9.088790 -54.560170 -11.950798 -24.162694 0.000000 0.000000 0.000000 -20.524834 0.323563 -2.768713 -43.897562 -3.333063 -11.313792 0.000000 0.000000 0.000000 1.668631 35.342081 35.513839 8.099806 -18.622063 -10.229151 0.000000 0.000000 0.000000 -0.111687 -0.078476 -0.035039 64.409905 10.315892 -2.893807 11.952956 33.450571 2.662318 13.825171 -2.809824 25.139971 21.590352 0.549750 -1.261919 26.482913 -14.693290 8.564144 0.000000 0.000000 0.000000 18.005728 6.275934 -6.831766 49.269957 -5.104354 -10.118684 0.000000 0.000000 0.000000 -2.776296 41.339584 -23.572894 47.320689 20.570632 -43.124259 0.000000 0.000000 0.000000 19.061090 12.051322 -7.369985 57.597296 5.395448 -16.662004 0.000000 0.000000 0.000000 -1.173074 -34.271039 34.544299 -8.688212 15.203494 -9.194738 0.000000 0.000000 0.000000 
0.004149 0.918819 -0.003372 0.857045 1.946829 -9.505451 3.761773 1.251473 11.801368 -3.803172 0.083432 2.720698 3.140618 -0.606569 -8.377690 0.000000 0.000000 0.000000 -4.201306 -0.843794 10.849346 3.268353 -0.124922 8.221826 -5.182914 -3.444437 -13.020996 0.000000 0.000000 0.000000 -0.217027 -0.826127 12.221484 -8.017215 -0.343102 -16.874958 8.192016 -0.601706 25.833404 1.884339 0.985208 -7.877007 0.000000 0.000000 0.000000 -5.646901 -4.223670 1.672563 -61.631011 -9.467641 -8.730432 -11.703523 -36.795219 7.868373 -9.663202 4.903805 17.261752 -21.421689 4.795354 0.672075 -14.082969 11.325602 13.999278 0.000000 0.000000 0.000000 -18.932043 1.342138 -3.561654 -26.644201 5.903165 1.519698 0.000000 0.000000 0.000000 -4.348650 -8.246639 -8.400397 -53.720977 -10.672692 -22.320441 0.000000 0.000000 0.000000 -18.939855 0.065831 -2.559706 -44.286710 -1.577826 -7.925956 0.000000 0.000000 0.000000 3.462105 34.739158 35.219756 5.904800 -17.795516 -8.776120 0.000000 0.000000 0.000000 0.192189 -0.204755 -0.125359 64.010226 10.041034 -3.069155 13.125375 33.277569 2.917110 13.007767 -2.633928 25.871827 21.828944 -0.867508 -0.904983 28.510237 -15.970463 9.036021 0.000000 0.000000 0.000000 16.307850 5.703050 -6.213904 51.951730 -5.883543 -10.045604 0.000000 0.000000 0.000000 -6.606820 45.881359 -24.240846 43.276863 24.110622 -49.327397 0.000000 0.000000 0.000000 18.321159 12.738359 -7.422541 62.466508 5.957414 -16.397717 0.000000 0.000000 0.000000 -2.264987 -36.905712 37.031724 -13.143292 18.246230 -13.073599 0.000000 0.000000 0.000000 
0.003913 0.918980 -0.003372 1.129662 1.420443 -9.509505 3.407795 1.330627 11.997576 -3.777689 0.105384 2.479111 3.194094 -0.174308 -8.132007 0.000000 0.000000 0.000000 -4.556101 -0.804649 11.075093 3.235029 -0.117711 7.704269 -5.029662 -2.883728 -13.032237 0.000000 0.000000 0.000000 -0.318846 -0.822572 12.202769 -8.399860 -0.199867 -16.795881 8.587282 -0.474736 25.738520 2.163203 0.837325 -7.195201 0.000000 0.000000 0.000000 -5.909298 -4.080026 1.590419 -61.409932 -9.318524 -8.708548 -12.124637 -36.869147 8.031943 -9.260512 5.188331 17.664705 -22.358283 3.066276 0.162979 -13.626545 12.884924 16.686248 0.000000 0.000000 0.000000 -19.883078 1.791563 -3.646801 -28.208713 5.478746 0.078706 0.000000 0.000000 0.000000 -3.945022 -9.309006 -9.117229 -55.027314 -11.988882 -23.771292 0.000000 0.000000 0.000000 -20.366116 -1.911399 -3.603424 -43.827467 -1.970070 -8.615248 0.000000 0.000000 0.000000 1.372119 35.192497 35.257316 7.702151 -18.337777 -9.912099 0.000000 0.000000 0.000000 0.023790 -0.067074 -0.037908 64.060398 10.123492 -3.100402 12.615717 33.478934 2.808775 13.714048 -2.797510 25.313847 21.464609 -0.509038 -0.944461 29.766193 -15.578536 7.990183 0.000000 0.000000 0.000000 17.811169 5.151592 -6.256047 49.740148 -5.512098 -9.860687 0.000000 0.000000 0.000000 -1.519285 40.727172 -23.438021 46.995461 19.003369 -41.622619 0.000000 0.000000 0.000000 19.599132 11.772667 -7.315281 58.279541 4.820282 -15.652375 0.000000 0.000000 0.000000 -2.433706 -35.208917 35.723733 -8.463167 15.956080 -9.380761 0.000000 0.000000 0.000000 
0.003737 0.918940 -0.003372 0.722363 1.433980 -9.716808 3.842473 1.304312 12.238651 -3.694870 0.100209 2.439646 3.243774 -0.216872 -8.296575 0.000000 0.000000 0.000000 -4.230870 -0.870714 11.334536 3.464365 -0.146819 7.642744 -4.969847 -2.822106 -12.901348 0.000000 0.000000 0.000000 0.108954 -0.834097 12.111374 -8.454531 -0.147333 -16.690489 8.587497 -0.548841 25.875626 1.994648 0.904297 -7.492259 0.000000 0.000000 0.000000 -6.109040 -3.728023 1.385478 -61.560361 -9.757631 -8.610879 -12.123649 -36.318854 7.904734 -9.911395 5.482410 18.284669 -22.009078 3.138424 0.171324 -16.500524 12.945457 14.498190 0.000000 0.000000 0.000000 -20.329250 1.873273 -3.754129 -30.046563 4.260659 -3.179827 0.000000 0.000000 0.000000 -3.867848 -11.826191 -10.932326 -57.730518 -9.214622 -18.964045 0.000000 0.000000 0.000000 -21.021465 -1.801656 -3.672628 -44.765881 -0.835618 -6.848696 0.000000 0.000000 0.000000 1.582618 35.955383 36.247291 9.690060 -18.595349 -11.041273 0.000000 0.000000 0.000000 0.400270 -0.470725 -0.282682 63.746825 10.491856 -2.958230 13.155573 33.090731 2.894152 12.506657 -3.597264 25.668404 21.793631 -0.618021 -0.965661 31.234992 -17.962360 9.572060 0.000000 0.000000 0.000000 18.494938 5.318184 -6.449541 53.822392 -6.207111 -9.736997 0.000000 0.000000 0.000000 -2.703818 45.754919 -21.781669 43.127506 25.002340 -50.065927 0.000000 0.000000 0.000000 22.275656 10.262331 -6.772416 61.948973 6.402376 -16.619477 0.000000 0.000000 0.000000 -2.907585 -36.857977 37.592430 -15.476802 17.733420 -14.011972 0.000000 0.000000 0.000000 
0.003913 0.918698 -0.003372 0.970350 0.936815 -10.232723 3.517252 1.452766 13.054729 -3.640941 0.125803 2.116017 3.337765 0.106787 -8.258366 0.000000 0.000000 0.000000 -4.535921 -0.828280 11.408388 3.323633 -0.117769 8.426639 -4.963973 -2.388513 -13.287494 0.000000 0.000000 0.000000 -0.143794 -0.880103 12.879525 -8.470835 -0.194618 -16.795273 8.651310 0.299483 25.965776 2.114882 1.075681 -8.558795 0.000000 0.000000 0.000000 -5.213657 -4.546407 1.865943 -62.351170 -9.838528 -8.746694 -11.092408 -36.823405 7.671900 -10.008195 5.074922 17.822404 -22.320891 4.280870 0.434444 -13.347678 11.678602 14.717035 0.000000 0.000000 0.000000 -19.540979 1.489417 -3.690170 -28.302491 5.302854 -0.475297 0.000000 0.000000 0.000000 -3.788504 -9.545826 -9.186119 -51.498250 -10.384411 -23.373803 0.000000 0.000000 0.000000 -20.006059 0.273172 -2.700804 -43.502763 -3.411647 -11.664243 0.000000 0.000000 0.000000 1.704060 34.813844 35.006469 7.569315 -18.036929 -9.723000 0.000000 0.000000 0.000000 -0.100981 -0.058628 -0.025766 64.428616 10.340236 -2.881050 11.879624 33.430395 2.641945 13.863513 -2.861487 25.107905 21.561404 0.722968 -1.314389 26.680584 -14.772591 8.555064 0.000000 0.000000 0.000000 17.941634 6.470848 -6.916980 49.421002 -5.083429 -10.163107 0.000000 0.000000 0.000000 -3.233198 41.551773 -23.986880 47.238272 20.608047 -43.159825 0.000000 0.000000 0.000000 18.954648 12.271955 -7.467805 57.627707 5.459382 -16.708030 0.000000 0.000000 0.000000 -1.142207 -34.222728 34.509476 -8.764392 15.183409 -9.224305 0.000000 0.000000 0.000000 
